:FULLY-SPECIFIED
:FORCE-ALL-JOINTS-BE-3DOF
:DEGREES
645
root 5.64133 15.8767 -1.23712 4.65528 19.723 -8.67469
lfemur -22.9441 24.7791 -24.1042
ltibia 64.6699 0 0
lfoot -8.58104 1.76629 0
ltoes -1.76205 0 0
rfemur -48.8459 -16.3701 27.0732
rtibia 66.0747 0 0
rfoot -16.6387 -1.9539 0
rtoes -6.99014 0 0
lowerback 0.333542 -5.00709 -2.34146
upperback -0.83832 -6.72439 1.53713
thorax -0.759231 -3.3699 2.89499
lowerneck -9.0263 -7.07196 -0.910091
upperneck 5.20632 -9.78046 3.78707
head 3.47618 -4.66462 0.692154
lclavicle 2.22815e-14 -7.99363e-15 0
lhumerus -13.7189 -60.1675 90.0225
lradius 75.9344 0 0
lwrist 26.7565 0 0
lhand -13.2892 -0.433793 0
lfingers 7.12502 0 0
lthumb 12.8138 29.1408 0
rclavicle 2.22815e-14 -7.99363e-15 0
rhumerus -27.5331 -3.87496 -60.6977
rradius 85.3304 0 0
rwrist -29.5418 0 0
rhand -27.0805 -39.8698 0
rfingers 7.12502 0 0
rthumb -0.497879 -789.857 0
646
root 5.631 15.8685 -1.18394 5.24456 18.2366 -8.24777
lfemur -23.0908 24.972 -24.1517
ltibia 65.184 0 0
lfoot -8.055 1.51058 0
ltoes -1.75433 0 0
rfemur -48.8957 -16.4752 27.2645
rtibia 66.3484 0 0
rfoot -17.0924 -2.26163 0
rtoes -6.55857 0 0
lowerback 0.261219 -5.08442 -2.25354
upperback -0.895271 -6.82473 1.52883
thorax -0.777971 -3.41936 2.83554
lowerneck -9.0974 -6.94505 -0.849215
upperneck 5.02806 -9.60254 3.72168
head 3.42226 -4.58216 0.677624
lclavicle 2.20968e-14 -8.05619e-15 0
lhumerus -13.4527 -60.8149 90.023
lradius 76.4302 0 0
lwrist 26.8027 0 0
lhand -13.1875 -0.397869 0
lfingers 7.12502 0 0
lthumb 12.9118 29.1715 0
rclavicle 2.20968e-14 -8.05619e-15 0
rhumerus -28.6732 -4.30286 -60.3623
rradius 84.3108 0 0
rwrist -29.137 0 0
rhand -27.0767 -40.29 0
rfingers 7.12502 0 0
rthumb -0.49426 -790.277 0
647
root 5.62075 15.8607 -1.1308 5.82703 16.7598 -7.82508
lfemur -23.2393 25.1611 -24.1916
ltibia 65.7006 0 0
lfoot -7.53324 1.2574 0
ltoes -1.74194 0 0
rfemur -48.9388 -16.5767 27.4513
rtibia 66.61 0 0
rfoot -17.5364 -2.56465 0
rtoes -6.13128 0 0
lowerback 0.190215 -5.16064 -2.16678
upperback -0.951611 -6.92366 1.52006
thorax -0.796858 -3.46811 2.77632
lowerneck -9.16719 -6.81945 -0.789012
upperneck 4.85198 -9.4265 3.65738
head 3.36893 -4.50055 0.663393
lclavicle 2.19068e-14 -8.11336e-15 0
lhumerus -13.1834 -61.4491 90.0124
lradius 76.9204 0 0
lwrist 26.8488 0 0
lhand -13.0884 -0.363265 0
lfingers 7.12502 0 0
lthumb 13.0074 29.201 0
rclavicle 2.19068e-14 -8.11336e-15 0
rhumerus -29.7997 -4.72587 -60.0249
rradius 83.3068 0 0
rwrist -28.7347 0 0
rhand -27.074 -40.7048 0
rfingers 7.12502 0 0
rthumb -0.491653 -790.692 0
648
root 5.61059 15.8535 -1.07774 6.40222 15.2938 -7.40694
lfemur -23.3895 25.3462 -24.2237
ltibia 66.2194 0 0
lfoot -7.01617 1.00698 0
ltoes -1.72467 0 0
rfemur -48.9749 -16.6744 27.6333
rtibia 66.8591 0 0
rfoot -17.9702 -2.86263 0
rtoes -5.70864 0 0
lowerback 0.120611 -5.23568 -2.08125
upperback -1.00729 -7.02108 1.5108
thorax -0.815889 -3.51611 2.71737
lowerneck -9.23556 -6.69528 -0.729533
upperneck 4.67825 -9.25249 3.59424
head 3.31623 -4.41988 0.64948
lclavicle 2.17116e-14 -8.16483e-15 0
lhumerus -12.9109 -62.0692 89.9902
lradius 77.4043 0 0
lwrist 26.8947 0 0
lhand -12.992 -0.330048 0
lfingers 7.12502 0 0
lthumb 13.1004 29.2293 0
rclavicle 2.17116e-14 -8.16483e-15 0
rhumerus -30.9116 -5.1436 -59.6854
rradius 82.3195 0 0
rwrist -28.3354 0 0
rhand -27.0724 -41.1139 0
rfingers 7.12502 0 0
rthumb -0.4901 -791.101 0
649
root 5.60053 15.8467 -1.02476 6.96966 13.8395 -6.99364
lfemur -23.5416 25.527 -24.2477
ltibia 66.7403 0 0
lfoot -6.50419 0.759528 0
ltoes -1.70236 0 0
rfemur -49.0039 -16.768 27.8103
rtibia 67.0949 0 0
rfoot -18.3931 -3.15526 0
rtoes -5.29101 0 0
lowerback 0.052492 -5.30946 -1.99705
upperback -1.06226 -7.11688 1.50105
thorax -0.835062 -3.56331 2.65873
lowerneck -9.30243 -6.57265 -0.670831
upperneck 4.50703 -9.08064 3.53232
head 3.2642 -4.3402 0.635903
lclavicle 2.15112e-14 -8.21034e-15 0
lhumerus -12.6353 -62.6745 89.956
lradius 77.8816 0 0
lwrist 26.9404 0 0
lhand -12.8985 -0.298285 0
lfingers 7.12502 0 0
lthumb 13.1906 29.2562 0
rclavicle 2.15112e-14 -8.21034e-15 0
rhumerus -32.0079 -5.55568 -59.3441
rradius 81.3499 0 0
rwrist -27.9393 0 0
rhand -27.072 -41.5169 0
rfingers 7.12502 0 0
rthumb -0.489645 -791.504 0
650
root 5.59058 15.8405 -0.971911 7.52889 12.3981 -6.58547
lfemur -23.6954 25.7032 -24.2632
ltibia 67.2632 0 0
lfoot -5.99769 0.515253 0
ltoes -1.67483 0 0
rfemur -49.0254 -16.8575 27.9821
rtibia 67.3169 0 0
rfoot -18.8045 -3.44219 0
rtoes -4.87876 0 0
lowerback -0.0140611 -5.3819 -1.91426
upperback -1.11648 -7.21097 1.49077
thorax -0.854374 -3.60966 2.60043
lowerneck -9.36773 -6.45165 -0.61296
upperneck 4.33849 -8.91112 3.4717
head 3.2129 -4.26159 0.62268
lclavicle 2.13057e-14 -8.24958e-15 0
lhumerus -12.3566 -63.2642 89.9094
lradius 78.3518 0 0
lwrist 26.9859 0 0
lhand -12.8079 -0.268045 0
lfingers 7.12502 0 0
lthumb 13.278 29.2817 0
rclavicle 2.13057e-14 -8.24958e-15 0
rhumerus -33.0875 -5.96173 -59.0009
rradius 80.3992 0 0
rwrist -27.5466 0 0
rhand -27.0727 -41.9135 0
rfingers 7.12502 0 0
rthumb -0.490331 -791.9 0
651
root 5.58075 15.8348 -0.919203 8.07944 10.9705 -6.18273
lfemur -23.8511 25.8747 -24.2699
ltibia 67.7879 0 0
lfoot -5.49707 0.274372 0
ltoes -1.64188 0 0
rfemur -49.0391 -16.9427 28.1483
rtibia 67.5245 0 0
rfoot -19.204 -3.72311 0
rtoes -4.47224 0 0
lowerback -0.0789654 -5.45292 -1.83297
upperback -1.16989 -7.30324 1.47997
thorax -0.873822 -3.6551 2.5425
lowerneck -9.43137 -6.3324 -0.555972
upperneck 4.17279 -8.74408 3.41245
head 3.16236 -4.18412 0.609829
lclavicle 2.10951e-14 -8.28227e-15 0
lhumerus -12.0747 -63.8374 89.8499
lradius 78.8146 0 0
lwrist 27.0312 0 0
lhand -12.7204 -0.239393 0
lfingers 7.12502 0 0
lthumb 13.3623 29.3058 0
rclavicle 2.10951e-14 -8.28227e-15 0
rhumerus -34.1494 -6.36138 -58.656
rradius 79.4683 0 0
rwrist -27.1576 0 0
rhand -27.0746 -42.3033 0
rfingers 7.12502 0 0
rthumb -0.492201 -792.29 0
652
root 5.57104 15.8297 -0.866666 8.62083 9.55767 -5.78572
lfemur -24.0086 26.0413 -24.2675
ltibia 68.3144 0 0
lfoot -5.00273 0.0370964 0
ltoes -1.60334 0 0
rfemur -49.0448 -17.0232 28.3087
rtibia 67.717 0 0
rfoot -19.5909 -3.99768 0
rtoes -4.07183 0 0
lowerback -0.142138 -5.52245 -1.75325
upperback -1.22244 -7.39361 1.46862
thorax -0.893403 -3.6996 2.48499
lowerneck -9.49326 -6.21501 -0.499919
upperneck 4.01009 -8.57967 3.35464
head 3.11264 -4.10786 0.597369
lclavicle 2.08796e-14 -8.30811e-15 0
lhumerus -11.7897 -64.3934 89.7771
lradius 79.2694 0 0
lwrist 27.0761 0 0
lhand -12.6362 -0.212399 0
lfingers 7.12502 0 0
lthumb 13.4435 29.3284 0
rclavicle 2.08796e-14 -8.30811e-15 0
rhumerus -35.1925 -6.75425 -58.3093
rradius 78.5584 0 0
rwrist -26.7727 0 0
rhand -27.0778 -42.6857 0
rfingers 7.12502 0 0
rthumb -0.495298 -792.672 0
653
root 5.56146 15.8252 -0.814324 9.1526 8.16076 -5.39474
lfemur -24.1679 26.2026 -24.2557
ltibia 68.8425 0 0
lfoot -4.51508 -0.196359 0
ltoes -1.55903 0 0
rfemur -49.0421 -17.099 28.4631
rtibia 67.894 0 0
rfoot -19.9646 -4.26557 0
rtoes -3.67788 0 0
lowerback -0.203497 -5.59041 -1.6752
upperback -1.2741 -7.48196 1.45671
thorax -0.913116 -3.7431 2.42792
lowerneck -9.55333 -6.09958 -0.444856
upperneck 3.85057 -8.41803 3.29834
head 3.06379 -4.03287 0.585317
lclavicle 2.06591e-14 -8.32683e-15 0
lhumerus -11.5015 -64.9314 89.6906
lradius 79.7157 0 0
lwrist 27.1208 0 0
lhand -12.5554 -0.187128 0
lfingers 7.12502 0 0
lthumb 13.5215 29.3494 0
rclavicle 2.06591e-14 -8.32683e-15 0
rhumerus -36.2159 -7.13995 -57.961
rradius 77.6705 0 0
rwrist -26.3921 0 0
rhand -27.0823 -43.0606 0
rfingers 7.12502 0 0
rthumb -0.499666 -793.047 0
654
root 5.55202 15.8214 -0.762202 9.67428 6.78074 -5.01009
lfemur -24.329 26.3586 -24.2342
ltibia 69.3721 0 0
lfoot -4.03451 -0.425781 0
ltoes -1.50877 0 0
rfemur -49.0308 -17.1699 28.6111
rtibia 68.0547 0 0
rfoot -20.3245 -4.52646 0
rtoes -3.29076 0 0
lowerback -0.26296 -5.65672 -1.5989
upperback -1.3248 -7.5682 1.44421
thorax -0.932957 -3.78556 2.37133
lowerneck -9.61149 -5.98621 -0.390833
upperneck 3.69438 -8.25932 3.24363
head 3.01584 -3.95923 0.573693
lclavicle 2.04337e-14 -8.33813e-15 0
lhumerus -11.2101 -65.4505 89.5899
lradius 80.1533 0 0
lwrist 27.1652 0 0
lhand -12.4782 -0.16365 0
lfingers 7.12502 0 0
lthumb 13.5959 29.3688 0
rclavicle 2.04337e-14 -8.33813e-15 0
rhumerus -37.2185 -7.51811 -57.6111
rradius 76.8056 0 0
rwrist -26.0161 0 0
rhand -27.0882 -43.4274 0
rfingers 7.12502 0 0
rthumb -0.505347 -793.414 0
655
root 5.54273 15.8181 -0.710326 10.1854 5.41865 -4.63206
lfemur -24.4919 26.5089 -24.2026
ltibia 69.9029 0 0
lfoot -3.56142 -0.650958 0
ltoes -1.45238 0 0
rfemur -49.0106 -17.2356 28.7526
rtibia 68.1986 0 0
rfoot -20.6702 -4.78002 0
rtoes -2.91083 0 0
lowerback -0.320444 -5.72131 -1.52443
upperback -1.3745 -7.65223 1.43113
thorax -0.952925 -3.82692 2.31525
lowerneck -9.66766 -5.87502 -0.337906
upperneck 3.5417 -8.1037 3.19057
head 2.96886 -3.887 0.562513
lclavicle 2.02036e-14 -8.34172e-15 0
lhumerus -10.9155 -65.9501 89.4746
lradius 80.5816 0 0
lwrist 27.2092 0 0
lhand -12.4046 -0.14203 0
lfingers 7.12502 0 0
lthumb 13.6669 29.3866 0
rclavicle 2.02036e-14 -8.34172e-15 0
rhumerus -38.1992 -7.88835 -57.2597
rradius 75.9649 0 0
rwrist -25.645 0 0
rhand -27.0955 -43.7858 0
rfingers 7.12502 0 0
rthumb -0.512384 -793.772 0
656
root 5.53358 15.8156 -0.658721 10.6855 4.0755 -4.26095
lfemur -24.6568 26.6533 -24.1607
ltibia 70.435 0 0
lfoot -3.09621 -0.871674 0
ltoes -1.38966 0 0
rfemur -48.9813 -17.296 28.8873
rtibia 68.3251 0 0
rfoot -21.0009 -5.02592 0
rtoes -2.53846 0 0
lowerback -0.375866 -5.78409 -1.45189
upperback -1.42316 -7.73396 1.41744
thorax -0.973015 -3.86713 2.25973
lowerneck -9.72175 -5.76611 -0.286125
upperneck 3.39268 -7.95131 3.13925
head 2.92288 -3.81626 0.551797
lclavicle 1.99687e-14 -8.33731e-15 0
lhumerus -10.6178 -66.4291 89.3443
lradius 81.0001 0 0
lwrist 27.2528 0 0
lhand -12.3349 -0.122337 0
lfingers 7.12502 0 0
lthumb 13.7341 29.4025 0
rclavicle 1.99687e-14 -8.33731e-15 0
rhumerus -39.157 -8.2503 -56.9069
rradius 75.1493 0 0
rwrist -25.2791 0 0
rhand -27.1042 -44.1354 0
rfingers 7.12502 0 0
rthumb -0.520822 -794.121 0
657
root 5.5246 15.8137 -0.607412 11.1741 2.75234 -3.89705
lfemur -24.8234 26.7916 -24.1081
ltibia 70.9681 0 0
lfoot -2.63928 -1.08772 0
ltoes -1.32046 0 0
rfemur -48.9424 -17.3509 29.0149
rtibia 68.4336 0 0
rfoot -21.3162 -5.26384 0
rtoes -2.17402 0 0
lowerback -0.429144 -5.84499 -1.38134
upperback -1.47071 -7.81327 1.40312
thorax -0.993227 -3.90615 2.2048
lowerneck -9.77368 -5.65959 -0.235544
upperneck 3.24749 -7.8023 3.08972
head 2.87794 -3.74708 0.541563
lclavicle 1.97291e-14 -8.32461e-15 0
lhumerus -10.3169 -66.887 89.1985
lradius 81.4085 0 0
lwrist 27.296 0 0
lhand -12.2692 -0.104638 0
lfingers 7.12502 0 0
lthumb 13.7975 29.4167 0
rclavicle 1.97291e-14 -8.32461e-15 0
rhumerus -40.091 -8.60357 -56.5527
rradius 74.36 0 0
rwrist -24.9186 0 0
rhand -27.1145 -44.4757 0
rfingers 7.12502 0 0
rthumb -0.530702 -794.462 0
